<?xml version="1.0" encoding="iso-8859-1"?>
<!-- Generator: Adobe Illustrator 19.0.0, SVG Export Plug-In . SVG Version: 6.00 Build 0)  -->
<svg version="1.1" id="Capa_1" xmlns="http://www.w3.org/2000/svg" xmlns:xlink="http://www.w3.org/1999/xlink" x="0px" y="0px"
	 viewBox="0 0 512.8 512.8" style="enable-background:new 0 0 512.8 512.8;" xml:space="preserve">
<polygon style="fill:#E8EAE9;" points="444.133,217.333 256.4,27.467 68.667,217.333 68.667,512.8 444.133,512.8 "/>
<path style="fill:#8AD7F8;" d="M501.733,232.267L280.933,10.4c-13.867-13.867-35.2-13.867-49.067,0l-220.8,221.867
	c-13.867,13.867-13.867,35.2,0,49.067l0,0c13.867,13.867,35.2,13.867,49.067,0L256.4,85.067l196.267,196.267
	c13.867,13.867,35.2,13.867,49.067,0C515.6,267.467,515.6,245.067,501.733,232.267z"/>
<path style="fill:#F3705A;" d="M380.133,300.533c0,92.8-123.733,160-123.733,160s-123.733-67.2-123.733-160c0-35.2,28.8-64,64-64
	c27.733,0,51.2,18.133,59.733,42.667c8.533-24.533,32-42.667,59.733-42.667C351.333,236.533,380.133,265.333,380.133,300.533z"/>
<g>
</g>
<g>
</g>
<g>
</g>
<g>
</g>
<g>
</g>
<g>
</g>
<g>
</g>
<g>
</g>
<g>
</g>
<g>
</g>
<g>
</g>
<g>
</g>
<g>
</g>
<g>
</g>
<g>
</g>
</svg>
